HIERARCHY
ROOT ui
{
	 OFFSET 0 0 0
	 CHANNELS 3 XPosition YPosition Z Position
	 EndSite
	 {
	 OFFSET 0 -1 0
	 }
}
ROOT li
{
	 OFFSET 0 0 0
	 CHANNELS 3 XPosition YPosition Z Position
	 EndSite
	 {
	 OFFSET 0 -1 0
	 }
}
ROOT ul
{
	 OFFSET 0 0 0
	 CHANNELS 3 XPosition YPosition Z Position
	 EndSite
	 {
	 OFFSET 0 -1 0
	 }
}
ROOT ll
{
	 OFFSET 0 0 0
	 CHANNELS 3 XPosition YPosition Z Position
	 EndSite
	 {
	 OFFSET 0 -1 0
	 }
}
ROOT tt
{
	 OFFSET 0 0 0
	 CHANNELS 3 XPosition YPosition Z Position
	 EndSite
	 {
	 OFFSET 0 -1 0
	 }
}
ROOT tb
{
	 OFFSET 0 0 0
	 CHANNELS 3 XPosition YPosition Z Position
	 EndSite
	 {
	 OFFSET 0 -1 0
	 }
}
ROOT td
{
	 OFFSET 0 0 0
	 CHANNELS 3 XPosition YPosition Z Position
	 EndSite
	 {
	 OFFSET 0 -1 0
	 }
}
ROOT v
{
	 OFFSET 0 0 0
	 CHANNELS 3 XPosition YPosition Z Position
	 EndSite
	 {
	 OFFSET 0 -1 0
	 }
}
ROOT bn
{
	 OFFSET 0 0 0
	 CHANNELS 3 XPosition YPosition Z Position
	 EndSite
	 {
	 OFFSET 0 -1 0
	 }
}
MOTION
Frames: 10
Frame Time: 0.002
0.005166501998901367	-0.0010315239429473876	0		0.7549227294921875	-2.80900341796875	0		-0.968767578125	0.2021367645263672	0		-0.3999898681640625	-2.5069423828125	0		2.088068359375	-1.2678231201171875	0		3.636983642578125	-0.5169360961914062	0		4.87579736328125	-0.061831031799316406	0		5.92075439453125	0.36203109741210937	0		-0.21609881591796876	5.91959814453125	0		
3.113679885864258E-4	0.0029336090087890626	0		0.7075460815429687	-2.789509765625	0		-0.9686875	0.20193901062011718	0		-0.37756982421875	-2.504302001953125	0		2.062287109375	-1.270402587890625	0		3.5848291015625	-0.5470684814453125	0		4.85081591796875	-0.0701012191772461	0		5.9214091796875	0.33017767333984377	0		-0.21865264892578126	5.9215068359375	0		
-0.0026302809715270997	-1.177000030875206E-4	0		0.7328832397460937	-2.795767822265625	0		-0.9745695190429687	0.20681004333496095	0		-0.41320004272460936	-2.504058837890625	0		2.00662255859375	-1.2596842041015626	0		3.5559091796875	-0.5534552612304687	0		4.81973095703125	-0.08732612609863281	0		5.9178427734375	0.3139749450683594	0		-0.25043531799316404	5.9007177734375	0		
-0.0025559139251708986	-1.9410400092601776E-4	0		0.7072877197265625	-2.79250341796875	0		-0.9804664916992187	0.21169017028808593	0		-0.3788802490234375	-2.506522216796875	0		1.9638538818359375	-1.257112060546875	0		3.52885205078125	-0.5718781127929687	0		4.803552734375	-0.11272474670410157	0		5.91006005859375	0.3151376953125	0		-0.2519808807373047	5.901625	0		
-0.002496654987335205	-2.6335901021957395E-4	0		0.7086590576171875	-2.789510986328125	0		-0.9694391479492187	0.21041221618652345	0		-0.40849627685546874	-2.499330078125	0		1.935091552734375	-1.2516929931640626	0		3.490930908203125	-0.5752105102539062	0		4.77551513671875	-0.12302796936035157	0		5.91374853515625	0.3332721862792969	0		-0.23641877746582032	5.9113701171875	0		
5.772590041160584E-4	0.0026457769870758055	0		0.7130057983398438	-2.785544677734375	0		-0.9662860717773437	0.22322969055175781	0		-0.4041768798828125	-2.49546923828125	0		1.8693858642578125	-1.23791845703125	0		3.46968408203125	-0.6097325439453125	0		4.75845263671875	-0.1344695587158203	0		5.929478515625	0.3337626647949219	0		-0.23792185974121094	5.912296875	0		
6.070569753646851E-4	0.002594192981719971	0		0.7132771606445313	-2.78553466796875	0		-0.966275390625	0.22309432983398436	0		-0.40393063354492187	-2.4955556640625	0		1.832475830078125	-1.2424447021484375	0		3.4347783203125	-0.6081400756835937	0		4.7232705078125	-0.15676429748535156	0		5.91242431640625	0.3436273193359375	0		-0.25351132202148435	5.90137255859375	0		
6.232669949531555E-4	0.0025522470474243163	0		0.7275496826171876	-2.7816572265625	0		-0.9712372436523438	0.22702525329589843	0		-0.41364068603515625	-2.487532470703125	0		1.7806405029296875	-1.23683740234375	0		3.4065029296875	-0.64263916015625	0		4.70820263671875	-0.16629039001464843	0		5.9124423828125	0.3443610229492188	0		-0.2549369201660156	5.9033203125	0		
-0.002402332067489624	-4.5098599791526794E-4	0		0.7116881713867188	-2.787484619140625	0		-0.9772008666992188	0.23198347473144532	0		-0.4035431213378906	-2.495689697265625	0		1.7636722412109376	-1.24258203125	0		3.340534423828125	-0.6437979736328125	0		4.68097705078125	-0.19073518371582032	0		5.9222626953125	0.3015354919433594	0		-0.2553415222167969	5.90327001953125	0		
-0.0024111199378967284	-4.744409918785095E-4	0		0.7138643798828125	-2.785484619140625	0		-0.972185302734375	0.235853759765625	0		-0.3874136962890625	-2.496890625	0		1.6848466796875	-1.230741943359375	0		3.329170654296875	-0.6845148315429688	0		4.65474072265625	-0.21522885131835937	0		5.9102060546875	0.3196921997070313	0		-0.23961607360839843	5.91207763671875	0		
